<mxfile host="Electron" modified="2024-03-03T22:43:22.155Z" agent="Mozilla/5.0 (Windows NT 10.0; Win64; x64) AppleWebKit/537.36 (KHTML, like Gecko) draw.io/23.1.5 Chrome/120.0.6099.109 Electron/28.1.0 Safari/537.36" etag="VxJnOV_Lt8LY1ITYT0sQ" version="23.1.5" type="device">
  <diagram name="ページ1" id="hYsqTFoL2EBxsI7E6CY6">
    <mxGraphModel dx="1149" dy="619" grid="1" gridSize="10" guides="1" tooltips="1" connect="1" arrows="1" fold="1" page="1" pageScale="1" pageWidth="2336" pageHeight="1654" math="1" shadow="0">
      <root>
        <mxCell id="0" />
        <mxCell id="1" parent="0" />
        <mxCell id="6vZ_p8r6TQkiwok0AXN3-46" value="" style="shape=waypoint;sketch=0;fillStyle=solid;size=6;pointerEvents=1;points=[];fillColor=none;resizable=0;rotatable=0;perimeter=centerPerimeter;snapToPoint=1;" parent="1" vertex="1">
          <mxGeometry x="110" y="50" width="20" height="20" as="geometry" />
        </mxCell>
        <mxCell id="6vZ_p8r6TQkiwok0AXN3-47" value="" style="endArrow=classic;html=1;rounded=0;entryX=0;entryY=0.5;entryDx=0;entryDy=0;" parent="1" edge="1">
          <mxGeometry width="50" height="50" relative="1" as="geometry">
            <mxPoint x="78" y="59.92" as="sourcePoint" />
            <mxPoint x="158" y="59.92" as="targetPoint" />
          </mxGeometry>
        </mxCell>
        <mxCell id="6vZ_p8r6TQkiwok0AXN3-51" value="" style="shape=waypoint;sketch=0;fillStyle=solid;size=6;pointerEvents=1;points=[];fillColor=none;resizable=0;rotatable=0;perimeter=centerPerimeter;snapToPoint=1;" parent="1" vertex="1">
          <mxGeometry x="110" y="170" width="20" height="20" as="geometry" />
        </mxCell>
        <mxCell id="6vZ_p8r6TQkiwok0AXN3-52" value="" style="endArrow=classic;html=1;rounded=0;exitX=0.633;exitY=0.867;exitDx=0;exitDy=0;exitPerimeter=0;entryX=0;entryY=0.5;entryDx=0;entryDy=0;" parent="1" source="6vZ_p8r6TQkiwok0AXN3-51" edge="1">
          <mxGeometry width="50" height="50" relative="1" as="geometry">
            <mxPoint x="339" y="310" as="sourcePoint" />
            <mxPoint x="159" y="180" as="targetPoint" />
          </mxGeometry>
        </mxCell>
        <mxCell id="6vZ_p8r6TQkiwok0AXN3-53" value="&lt;font style=&quot;font-size: 15px;&quot;&gt;$$x[n]$$&lt;/font&gt;" style="text;html=1;align=center;verticalAlign=middle;whiteSpace=wrap;rounded=0;" parent="1" vertex="1">
          <mxGeometry x="38" y="44" width="40" height="30" as="geometry" />
        </mxCell>
        <mxCell id="6vZ_p8r6TQkiwok0AXN3-55" value="&lt;font style=&quot;font-size: 15px;&quot;&gt;$$z^{-1}$$&lt;/font&gt;" style="rounded=0;whiteSpace=wrap;html=1;" parent="1" vertex="1">
          <mxGeometry x="100" y="100" width="40" height="40" as="geometry" />
        </mxCell>
        <mxCell id="6vZ_p8r6TQkiwok0AXN3-56" value="&lt;font style=&quot;font-size: 15px;&quot;&gt;$$z^{-1}$$&lt;/font&gt;" style="rounded=0;whiteSpace=wrap;html=1;" parent="1" vertex="1">
          <mxGeometry x="100" y="220" width="40" height="40" as="geometry" />
        </mxCell>
        <mxCell id="6vZ_p8r6TQkiwok0AXN3-57" value="" style="endArrow=classic;html=1;rounded=0;entryX=0.5;entryY=0;entryDx=0;entryDy=0;" parent="1" target="6vZ_p8r6TQkiwok0AXN3-55" edge="1">
          <mxGeometry width="50" height="50" relative="1" as="geometry">
            <mxPoint x="120" y="60" as="sourcePoint" />
            <mxPoint x="139.5" y="10" as="targetPoint" />
          </mxGeometry>
        </mxCell>
        <mxCell id="6vZ_p8r6TQkiwok0AXN3-58" value="" style="endArrow=classic;html=1;rounded=0;exitX=0.5;exitY=1;exitDx=0;exitDy=0;entryX=0.5;entryY=0;entryDx=0;entryDy=0;" parent="1" source="6vZ_p8r6TQkiwok0AXN3-55" target="6vZ_p8r6TQkiwok0AXN3-56" edge="1">
          <mxGeometry width="50" height="50" relative="1" as="geometry">
            <mxPoint x="58.5" y="179.5" as="sourcePoint" />
            <mxPoint x="120" y="220" as="targetPoint" />
          </mxGeometry>
        </mxCell>
        <mxCell id="6vZ_p8r6TQkiwok0AXN3-59" value="&lt;font style=&quot;font-size: 20px;&quot;&gt;$$\vdots$$&lt;/font&gt;" style="text;html=1;align=center;verticalAlign=middle;whiteSpace=wrap;rounded=0;direction=north;" parent="1" vertex="1">
          <mxGeometry x="105" y="370" width="30" height="40" as="geometry" />
        </mxCell>
        <mxCell id="6vZ_p8r6TQkiwok0AXN3-60" value="" style="endArrow=classic;html=1;rounded=0;entryX=1;entryY=0.5;entryDx=0;entryDy=0;exitX=0.5;exitY=1;exitDx=0;exitDy=0;" parent="1" source="6vZ_p8r6TQkiwok0AXN3-56" target="6vZ_p8r6TQkiwok0AXN3-59" edge="1">
          <mxGeometry width="50" height="50" relative="1" as="geometry">
            <mxPoint x="119" y="270" as="sourcePoint" />
            <mxPoint x="169" y="190" as="targetPoint" />
          </mxGeometry>
        </mxCell>
        <mxCell id="6vZ_p8r6TQkiwok0AXN3-61" value="" style="edgeStyle=segmentEdgeStyle;endArrow=classic;html=1;curved=0;rounded=0;endSize=8;startSize=8;exitX=0;exitY=0.5;exitDx=0;exitDy=0;entryX=0;entryY=0.5;entryDx=0;entryDy=0;" parent="1" source="6vZ_p8r6TQkiwok0AXN3-59" target="6vZ_p8r6TQkiwok0AXN3-65" edge="1">
          <mxGeometry width="50" height="50" relative="1" as="geometry">
            <mxPoint x="270" y="389" as="sourcePoint" />
            <mxPoint x="160" y="440" as="targetPoint" />
            <Array as="points">
              <mxPoint x="120" y="440" />
            </Array>
          </mxGeometry>
        </mxCell>
        <mxCell id="6vZ_p8r6TQkiwok0AXN3-62" value="&lt;font style=&quot;font-size: 20px;&quot;&gt;$$\boldsymbol{T}$$&lt;/font&gt;" style="rounded=0;whiteSpace=wrap;html=1;" parent="1" vertex="1">
          <mxGeometry x="440" y="39" width="120" height="481" as="geometry" />
        </mxCell>
        <mxCell id="6vZ_p8r6TQkiwok0AXN3-63" value="&lt;font style=&quot;font-size: 16px;&quot;&gt;$$\downarrow&lt;br&gt;M$$&lt;/font&gt;" style="rounded=0;whiteSpace=wrap;html=1;" parent="1" vertex="1">
          <mxGeometry x="160" y="40" width="40" height="40" as="geometry" />
        </mxCell>
        <mxCell id="6vZ_p8r6TQkiwok0AXN3-64" value="&lt;font style=&quot;font-size: 16px;&quot;&gt;$$\downarrow&lt;br&gt;M$$&lt;/font&gt;" style="rounded=0;whiteSpace=wrap;html=1;" parent="1" vertex="1">
          <mxGeometry x="159" y="159" width="40" height="40" as="geometry" />
        </mxCell>
        <mxCell id="6vZ_p8r6TQkiwok0AXN3-65" value="&lt;font style=&quot;font-size: 16px;&quot;&gt;$$\downarrow&lt;br&gt;M$$&lt;/font&gt;" style="rounded=0;whiteSpace=wrap;html=1;" parent="1" vertex="1">
          <mxGeometry x="160" y="420" width="40" height="40" as="geometry" />
        </mxCell>
        <mxCell id="6vZ_p8r6TQkiwok0AXN3-67" value="" style="endArrow=classic;html=1;rounded=0;exitX=1;exitY=0.5;exitDx=0;exitDy=0;entryX=0;entryY=0.5;entryDx=0;entryDy=0;" parent="1" source="6vZ_p8r6TQkiwok0AXN3-64" target="6vZ_p8r6TQkiwok0AXN3-104" edge="1">
          <mxGeometry width="50" height="50" relative="1" as="geometry">
            <mxPoint x="198" y="177" as="sourcePoint" />
            <mxPoint x="240" y="178" as="targetPoint" />
          </mxGeometry>
        </mxCell>
        <mxCell id="6vZ_p8r6TQkiwok0AXN3-91" value="$$G_{0}(-z^{2})$$" style="rounded=0;whiteSpace=wrap;html=1;" parent="1" vertex="1">
          <mxGeometry x="240" y="40" width="80" height="40" as="geometry" />
        </mxCell>
        <mxCell id="6vZ_p8r6TQkiwok0AXN3-92" value="$$G_{M}(-z^{2})$$" style="rounded=0;whiteSpace=wrap;html=1;" parent="1" vertex="1">
          <mxGeometry x="240" y="100" width="80" height="40" as="geometry" />
        </mxCell>
        <mxCell id="6vZ_p8r6TQkiwok0AXN3-98" value="" style="endArrow=classic;html=1;rounded=0;entryX=0;entryY=0.5;entryDx=0;entryDy=0;exitX=1;exitY=0.5;exitDx=0;exitDy=0;" parent="1" source="6vZ_p8r6TQkiwok0AXN3-63" target="6vZ_p8r6TQkiwok0AXN3-91" edge="1">
          <mxGeometry width="50" height="50" relative="1" as="geometry">
            <mxPoint x="220" y="140" as="sourcePoint" />
            <mxPoint x="270" y="90" as="targetPoint" />
          </mxGeometry>
        </mxCell>
        <mxCell id="6vZ_p8r6TQkiwok0AXN3-101" value="" style="shape=waypoint;sketch=0;fillStyle=solid;size=6;pointerEvents=1;points=[];fillColor=none;resizable=0;rotatable=0;perimeter=centerPerimeter;snapToPoint=1;" parent="1" vertex="1">
          <mxGeometry x="210" y="50" width="20" height="20" as="geometry" />
        </mxCell>
        <mxCell id="6vZ_p8r6TQkiwok0AXN3-103" value="" style="edgeStyle=segmentEdgeStyle;endArrow=classic;html=1;curved=0;rounded=0;endSize=8;startSize=8;exitX=0.517;exitY=0.75;exitDx=0;exitDy=0;exitPerimeter=0;entryX=0;entryY=0.5;entryDx=0;entryDy=0;" parent="1" source="6vZ_p8r6TQkiwok0AXN3-101" target="6vZ_p8r6TQkiwok0AXN3-92" edge="1">
          <mxGeometry width="50" height="50" relative="1" as="geometry">
            <mxPoint x="340" y="170" as="sourcePoint" />
            <mxPoint x="390" y="120" as="targetPoint" />
            <Array as="points">
              <mxPoint x="220" y="120" />
            </Array>
          </mxGeometry>
        </mxCell>
        <mxCell id="6vZ_p8r6TQkiwok0AXN3-104" value="$$G_{1}(-z^{2})$$" style="rounded=0;whiteSpace=wrap;html=1;" parent="1" vertex="1">
          <mxGeometry x="240" y="159" width="80" height="40" as="geometry" />
        </mxCell>
        <mxCell id="6vZ_p8r6TQkiwok0AXN3-106" value="&lt;font style=&quot;font-size: 15px;&quot;&gt;$$z^{-1}$$&lt;/font&gt;" style="rounded=0;whiteSpace=wrap;html=1;" parent="1" vertex="1">
          <mxGeometry x="340" y="100" width="40" height="40" as="geometry" />
        </mxCell>
        <mxCell id="6vZ_p8r6TQkiwok0AXN3-107" value="" style="endArrow=classic;html=1;rounded=0;exitX=1;exitY=0.5;exitDx=0;exitDy=0;entryX=0;entryY=0.5;entryDx=0;entryDy=0;" parent="1" source="6vZ_p8r6TQkiwok0AXN3-92" target="6vZ_p8r6TQkiwok0AXN3-106" edge="1">
          <mxGeometry width="50" height="50" relative="1" as="geometry">
            <mxPoint x="340" y="170" as="sourcePoint" />
            <mxPoint x="360" y="120" as="targetPoint" />
          </mxGeometry>
        </mxCell>
        <mxCell id="6vZ_p8r6TQkiwok0AXN3-108" value="" style="endArrow=classic;html=1;rounded=0;exitX=1;exitY=0.5;exitDx=0;exitDy=0;entryX=0;entryY=0.042;entryDx=0;entryDy=0;entryPerimeter=0;" parent="1" source="6vZ_p8r6TQkiwok0AXN3-91" target="6vZ_p8r6TQkiwok0AXN3-62" edge="1">
          <mxGeometry width="50" height="50" relative="1" as="geometry">
            <mxPoint x="330" y="130" as="sourcePoint" />
            <mxPoint x="370" y="130" as="targetPoint" />
          </mxGeometry>
        </mxCell>
        <mxCell id="6vZ_p8r6TQkiwok0AXN3-109" value="" style="edgeStyle=elbowEdgeStyle;elbow=horizontal;endArrow=classic;html=1;curved=0;rounded=0;endSize=8;startSize=8;exitX=1;exitY=0.5;exitDx=0;exitDy=0;entryX=0;entryY=0.5;entryDx=0;entryDy=0;" parent="1" source="6vZ_p8r6TQkiwok0AXN3-104" target="6vZ_p8r6TQkiwok0AXN3-150" edge="1">
          <mxGeometry width="50" height="50" relative="1" as="geometry">
            <mxPoint x="340" y="270" as="sourcePoint" />
            <mxPoint x="390" y="220" as="targetPoint" />
            <Array as="points">
              <mxPoint x="410" y="140" />
            </Array>
          </mxGeometry>
        </mxCell>
        <mxCell id="6vZ_p8r6TQkiwok0AXN3-112" value="$$G_{1}(-z^{2})$$" style="rounded=0;whiteSpace=wrap;html=1;" parent="1" vertex="1">
          <mxGeometry x="240" y="220" width="80" height="40" as="geometry" />
        </mxCell>
        <mxCell id="6vZ_p8r6TQkiwok0AXN3-113" value="" style="edgeStyle=segmentEdgeStyle;endArrow=classic;html=1;curved=0;rounded=0;endSize=8;startSize=8;exitDx=0;exitDy=0;exitPerimeter=0;" parent="1" source="6vZ_p8r6TQkiwok0AXN3-117" target="6vZ_p8r6TQkiwok0AXN3-112" edge="1">
          <mxGeometry width="50" height="50" relative="1" as="geometry">
            <mxPoint x="219" y="180" as="sourcePoint" />
            <mxPoint x="240" y="241" as="targetPoint" />
            <Array as="points">
              <mxPoint x="219" y="240" />
            </Array>
          </mxGeometry>
        </mxCell>
        <mxCell id="6vZ_p8r6TQkiwok0AXN3-114" value="$$G_{M-1}(-z^{2})$$" style="rounded=0;whiteSpace=wrap;html=1;" parent="1" vertex="1">
          <mxGeometry x="240" y="420" width="80" height="40" as="geometry" />
        </mxCell>
        <mxCell id="6vZ_p8r6TQkiwok0AXN3-115" value="$$G_{2M-1}(-z^{2})$$" style="rounded=0;whiteSpace=wrap;html=1;" parent="1" vertex="1">
          <mxGeometry x="240" y="480" width="80" height="40" as="geometry" />
        </mxCell>
        <mxCell id="6vZ_p8r6TQkiwok0AXN3-118" value="" style="edgeStyle=segmentEdgeStyle;endArrow=classic;html=1;curved=0;rounded=0;endSize=8;startSize=8;exitX=0.517;exitY=0.75;exitDx=0;exitDy=0;exitPerimeter=0;entryDx=0;entryDy=0;" parent="1" target="6vZ_p8r6TQkiwok0AXN3-117" edge="1">
          <mxGeometry width="50" height="50" relative="1" as="geometry">
            <mxPoint x="219" y="180" as="sourcePoint" />
            <mxPoint x="240" y="241" as="targetPoint" />
            <Array as="points" />
          </mxGeometry>
        </mxCell>
        <mxCell id="6vZ_p8r6TQkiwok0AXN3-117" value="" style="shape=waypoint;sketch=0;fillStyle=solid;size=6;pointerEvents=1;points=[];fillColor=none;resizable=0;rotatable=0;perimeter=centerPerimeter;snapToPoint=1;" parent="1" vertex="1">
          <mxGeometry x="209" y="170" width="20" height="20" as="geometry" />
        </mxCell>
        <mxCell id="6vZ_p8r6TQkiwok0AXN3-124" value="" style="endArrow=classic;html=1;rounded=0;exitX=1;exitY=0.5;exitDx=0;exitDy=0;entryX=0;entryY=0.5;entryDx=0;entryDy=0;" parent="1" source="6vZ_p8r6TQkiwok0AXN3-65" target="6vZ_p8r6TQkiwok0AXN3-114" edge="1">
          <mxGeometry width="50" height="50" relative="1" as="geometry">
            <mxPoint x="199" y="438" as="sourcePoint" />
            <mxPoint x="240" y="438" as="targetPoint" />
          </mxGeometry>
        </mxCell>
        <mxCell id="6vZ_p8r6TQkiwok0AXN3-125" value="" style="edgeStyle=segmentEdgeStyle;endArrow=classic;html=1;curved=0;rounded=0;endSize=8;startSize=8;exitDx=0;exitDy=0;exitPerimeter=0;entryX=0;entryY=0.5;entryDx=0;entryDy=0;" parent="1" edge="1">
          <mxGeometry width="50" height="50" relative="1" as="geometry">
            <mxPoint x="220" y="440" as="sourcePoint" />
            <mxPoint x="240" y="500" as="targetPoint" />
            <Array as="points">
              <mxPoint x="220" y="500" />
            </Array>
          </mxGeometry>
        </mxCell>
        <mxCell id="6vZ_p8r6TQkiwok0AXN3-128" value="&lt;font style=&quot;font-size: 15px;&quot;&gt;$$z^{-1}$$&lt;/font&gt;" style="rounded=0;whiteSpace=wrap;html=1;" parent="1" vertex="1">
          <mxGeometry x="340" y="480" width="40" height="40" as="geometry" />
        </mxCell>
        <mxCell id="6vZ_p8r6TQkiwok0AXN3-129" value="" style="endArrow=classic;html=1;rounded=0;exitX=1;exitY=0.5;exitDx=0;exitDy=0;entryX=0;entryY=0.5;entryDx=0;entryDy=0;" parent="1" target="6vZ_p8r6TQkiwok0AXN3-155" edge="1">
          <mxGeometry width="50" height="50" relative="1" as="geometry">
            <mxPoint x="380" y="499.5" as="sourcePoint" />
            <mxPoint x="440" y="500" as="targetPoint" />
          </mxGeometry>
        </mxCell>
        <mxCell id="6vZ_p8r6TQkiwok0AXN3-130" value="" style="endArrow=classic;html=1;rounded=0;exitX=1;exitY=0.5;exitDx=0;exitDy=0;entryX=0;entryY=0.5;entryDx=0;entryDy=0;" parent="1" source="6vZ_p8r6TQkiwok0AXN3-115" target="6vZ_p8r6TQkiwok0AXN3-128" edge="1">
          <mxGeometry width="50" height="50" relative="1" as="geometry">
            <mxPoint x="340" y="270" as="sourcePoint" />
            <mxPoint x="390" y="220" as="targetPoint" />
          </mxGeometry>
        </mxCell>
        <mxCell id="6vZ_p8r6TQkiwok0AXN3-132" value="&lt;font style=&quot;font-size: 15px;&quot;&gt;$$z^{-1}$$&lt;/font&gt;" style="rounded=0;whiteSpace=wrap;html=1;" parent="1" vertex="1">
          <mxGeometry x="340" y="220" width="40" height="40" as="geometry" />
        </mxCell>
        <mxCell id="6vZ_p8r6TQkiwok0AXN3-134" value="" style="endArrow=classic;html=1;rounded=0;exitX=1;exitY=0.5;exitDx=0;exitDy=0;entryX=0;entryY=0.5;entryDx=0;entryDy=0;" parent="1" source="6vZ_p8r6TQkiwok0AXN3-112" target="6vZ_p8r6TQkiwok0AXN3-132" edge="1">
          <mxGeometry width="50" height="50" relative="1" as="geometry">
            <mxPoint x="330" y="130" as="sourcePoint" />
            <mxPoint x="350" y="130" as="targetPoint" />
          </mxGeometry>
        </mxCell>
        <mxCell id="6vZ_p8r6TQkiwok0AXN3-135" value="" style="edgeStyle=elbowEdgeStyle;elbow=horizontal;endArrow=classic;html=1;curved=0;rounded=0;endSize=8;startSize=8;exitX=1;exitY=0.5;exitDx=0;exitDy=0;entryX=0;entryY=0.5;entryDx=0;entryDy=0;" parent="1" source="6vZ_p8r6TQkiwok0AXN3-114" target="6vZ_p8r6TQkiwok0AXN3-151" edge="1">
          <mxGeometry width="50" height="50" relative="1" as="geometry">
            <mxPoint x="340" y="270" as="sourcePoint" />
            <mxPoint x="390" y="220" as="targetPoint" />
            <Array as="points">
              <mxPoint x="410" y="330" />
            </Array>
          </mxGeometry>
        </mxCell>
        <mxCell id="6vZ_p8r6TQkiwok0AXN3-137" value="" style="edgeStyle=elbowEdgeStyle;elbow=horizontal;endArrow=classic;html=1;curved=0;rounded=0;endSize=8;startSize=8;exitX=1;exitY=0.5;exitDx=0;exitDy=0;entryX=0;entryY=0.5;entryDx=0;entryDy=0;" parent="1" source="6vZ_p8r6TQkiwok0AXN3-106" target="6vZ_p8r6TQkiwok0AXN3-153" edge="1">
          <mxGeometry width="50" height="50" relative="1" as="geometry">
            <mxPoint x="340" y="270" as="sourcePoint" />
            <mxPoint x="390" y="220" as="targetPoint" />
            <Array as="points">
              <mxPoint x="400" y="190" />
            </Array>
          </mxGeometry>
        </mxCell>
        <mxCell id="6vZ_p8r6TQkiwok0AXN3-138" value="" style="edgeStyle=elbowEdgeStyle;elbow=horizontal;endArrow=classic;html=1;curved=0;rounded=0;endSize=8;startSize=8;exitX=1;exitY=0.5;exitDx=0;exitDy=0;entryX=0;entryY=0.5;entryDx=0;entryDy=0;" parent="1" source="6vZ_p8r6TQkiwok0AXN3-132" target="6vZ_p8r6TQkiwok0AXN3-154" edge="1">
          <mxGeometry width="50" height="50" relative="1" as="geometry">
            <mxPoint x="390" y="130" as="sourcePoint" />
            <mxPoint x="437" y="295" as="targetPoint" />
            <Array as="points">
              <mxPoint x="390" y="270" />
            </Array>
          </mxGeometry>
        </mxCell>
        <mxCell id="6vZ_p8r6TQkiwok0AXN3-139" value="&lt;font style=&quot;font-size: 20px;&quot;&gt;$$\vdots$$&lt;/font&gt;" style="text;html=1;align=center;verticalAlign=middle;whiteSpace=wrap;rounded=0;direction=north;" parent="1" vertex="1">
          <mxGeometry x="265" y="320" width="30" height="40" as="geometry" />
        </mxCell>
        <mxCell id="6vZ_p8r6TQkiwok0AXN3-141" value="&lt;font style=&quot;font-size: 15px;&quot;&gt;$$y_{0}[m]$$&lt;/font&gt;" style="text;html=1;align=center;verticalAlign=middle;whiteSpace=wrap;rounded=0;" parent="1" vertex="1">
          <mxGeometry x="600" y="44" width="70" height="30" as="geometry" />
        </mxCell>
        <mxCell id="6vZ_p8r6TQkiwok0AXN3-142" value="&lt;font style=&quot;font-size: 15px;&quot;&gt;$$y_{1}[m]$$&lt;/font&gt;" style="text;html=1;align=center;verticalAlign=middle;whiteSpace=wrap;rounded=0;" parent="1" vertex="1">
          <mxGeometry x="600" y="105" width="70" height="30" as="geometry" />
        </mxCell>
        <mxCell id="6vZ_p8r6TQkiwok0AXN3-143" value="&lt;font style=&quot;font-size: 15px;&quot;&gt;$$y_{M-1}[m]$$&lt;/font&gt;" style="text;html=1;align=center;verticalAlign=middle;whiteSpace=wrap;rounded=0;" parent="1" vertex="1">
          <mxGeometry x="600" y="185" width="70" height="30" as="geometry" />
        </mxCell>
        <mxCell id="6vZ_p8r6TQkiwok0AXN3-144" value="&lt;font style=&quot;font-size: 20px;&quot;&gt;$$\vdots$$&lt;/font&gt;" style="text;html=1;align=center;verticalAlign=middle;whiteSpace=wrap;rounded=0;direction=north;" parent="1" vertex="1">
          <mxGeometry x="620" y="140" width="30" height="40" as="geometry" />
        </mxCell>
        <mxCell id="6vZ_p8r6TQkiwok0AXN3-145" value="" style="endArrow=classic;html=1;rounded=0;entryX=0;entryY=0.5;entryDx=0;entryDy=0;" parent="1" target="6vZ_p8r6TQkiwok0AXN3-141" edge="1">
          <mxGeometry width="50" height="50" relative="1" as="geometry">
            <mxPoint x="560" y="59" as="sourcePoint" />
            <mxPoint x="610" y="59" as="targetPoint" />
          </mxGeometry>
        </mxCell>
        <mxCell id="6vZ_p8r6TQkiwok0AXN3-146" value="" style="endArrow=classic;html=1;rounded=0;entryX=0;entryY=0.5;entryDx=0;entryDy=0;" parent="1" target="6vZ_p8r6TQkiwok0AXN3-142" edge="1">
          <mxGeometry width="50" height="50" relative="1" as="geometry">
            <mxPoint x="560" y="119.5" as="sourcePoint" />
            <mxPoint x="610" y="120" as="targetPoint" />
          </mxGeometry>
        </mxCell>
        <mxCell id="6vZ_p8r6TQkiwok0AXN3-147" value="" style="endArrow=classic;html=1;rounded=0;entryX=0;entryY=0.5;entryDx=0;entryDy=0;exitX=1;exitY=0.5;exitDx=0;exitDy=0;" parent="1" source="6vZ_p8r6TQkiwok0AXN3-162" target="6vZ_p8r6TQkiwok0AXN3-143" edge="1">
          <mxGeometry width="50" height="50" relative="1" as="geometry">
            <mxPoint x="560" y="219" as="sourcePoint" />
            <mxPoint x="610" y="219" as="targetPoint" />
          </mxGeometry>
        </mxCell>
        <mxCell id="6vZ_p8r6TQkiwok0AXN3-149" value="&lt;font style=&quot;font-size: 11px;&quot;&gt;$$0$$&lt;/font&gt;" style="text;html=1;align=center;verticalAlign=middle;whiteSpace=wrap;rounded=0;" parent="1" vertex="1">
          <mxGeometry x="440" y="45" width="30" height="30" as="geometry" />
        </mxCell>
        <mxCell id="6vZ_p8r6TQkiwok0AXN3-150" value="&lt;font style=&quot;font-size: 11px;&quot;&gt;$$1$$&lt;/font&gt;" style="text;html=1;align=center;verticalAlign=middle;whiteSpace=wrap;rounded=0;" parent="1" vertex="1">
          <mxGeometry x="440" y="105" width="30" height="30" as="geometry" />
        </mxCell>
        <mxCell id="6vZ_p8r6TQkiwok0AXN3-151" value="&lt;font style=&quot;font-size: 11px;&quot;&gt;$$M-1$$&lt;/font&gt;" style="text;html=1;align=center;verticalAlign=middle;whiteSpace=wrap;rounded=0;" parent="1" vertex="1">
          <mxGeometry x="440" y="185" width="40" height="30" as="geometry" />
        </mxCell>
        <mxCell id="6vZ_p8r6TQkiwok0AXN3-153" value="&lt;font style=&quot;font-size: 11px;&quot;&gt;$$M$$&lt;/font&gt;" style="text;html=1;align=center;verticalAlign=middle;whiteSpace=wrap;rounded=0;" parent="1" vertex="1">
          <mxGeometry x="440" y="245" width="40" height="30" as="geometry" />
        </mxCell>
        <mxCell id="6vZ_p8r6TQkiwok0AXN3-154" value="&lt;font style=&quot;font-size: 11px;&quot;&gt;$$M+1$$&lt;/font&gt;" style="text;html=1;align=center;verticalAlign=middle;whiteSpace=wrap;rounded=0;" parent="1" vertex="1">
          <mxGeometry x="440" y="305" width="40" height="30" as="geometry" />
        </mxCell>
        <mxCell id="6vZ_p8r6TQkiwok0AXN3-155" value="&lt;font style=&quot;font-size: 11px;&quot;&gt;$$2M-1$$&lt;/font&gt;" style="text;html=1;align=center;verticalAlign=middle;whiteSpace=wrap;rounded=0;" parent="1" vertex="1">
          <mxGeometry x="440" y="485" width="50" height="30" as="geometry" />
        </mxCell>
        <mxCell id="6vZ_p8r6TQkiwok0AXN3-160" value="&lt;font style=&quot;font-size: 11px;&quot;&gt;$$0$$&lt;/font&gt;" style="text;html=1;align=center;verticalAlign=middle;whiteSpace=wrap;rounded=0;" parent="1" vertex="1">
          <mxGeometry x="530" y="45" width="30" height="30" as="geometry" />
        </mxCell>
        <mxCell id="6vZ_p8r6TQkiwok0AXN3-161" value="&lt;font style=&quot;font-size: 11px;&quot;&gt;$$1$$&lt;/font&gt;" style="text;html=1;align=center;verticalAlign=middle;whiteSpace=wrap;rounded=0;" parent="1" vertex="1">
          <mxGeometry x="530" y="105" width="30" height="30" as="geometry" />
        </mxCell>
        <mxCell id="6vZ_p8r6TQkiwok0AXN3-162" value="&lt;font style=&quot;font-size: 11px;&quot;&gt;$$M-1$$&lt;/font&gt;" style="text;html=1;align=center;verticalAlign=middle;whiteSpace=wrap;rounded=0;" parent="1" vertex="1">
          <mxGeometry x="520" y="185" width="40" height="30" as="geometry" />
        </mxCell>
        <mxCell id="6vZ_p8r6TQkiwok0AXN3-164" value="&lt;font style=&quot;font-size: 20px;&quot;&gt;$$\vdots$$&lt;/font&gt;" style="text;html=1;align=center;verticalAlign=middle;whiteSpace=wrap;rounded=0;direction=north;" parent="1" vertex="1">
          <mxGeometry x="440" y="146" width="30" height="40" as="geometry" />
        </mxCell>
        <mxCell id="6vZ_p8r6TQkiwok0AXN3-165" value="&lt;font style=&quot;font-size: 20px;&quot;&gt;$$\vdots$$&lt;/font&gt;" style="text;html=1;align=center;verticalAlign=middle;whiteSpace=wrap;rounded=0;direction=north;" parent="1" vertex="1">
          <mxGeometry x="440" y="389" width="30" height="40" as="geometry" />
        </mxCell>
        <mxCell id="6vZ_p8r6TQkiwok0AXN3-166" value="&lt;font style=&quot;font-size: 20px;&quot;&gt;$$\vdots$$&lt;/font&gt;" style="text;html=1;align=center;verticalAlign=middle;whiteSpace=wrap;rounded=0;direction=north;" parent="1" vertex="1">
          <mxGeometry x="530" y="145" width="30" height="40" as="geometry" />
        </mxCell>
        <mxCell id="6vZ_p8r6TQkiwok0AXN3-170" value="" style="shape=waypoint;sketch=0;fillStyle=solid;size=6;pointerEvents=1;points=[];fillColor=none;resizable=0;rotatable=0;perimeter=centerPerimeter;snapToPoint=1;" parent="1" vertex="1">
          <mxGeometry x="210" y="430" width="20" height="20" as="geometry" />
        </mxCell>
        <mxCell id="6vZ_p8r6TQkiwok0AXN3-183" value="&lt;font style=&quot;font-size: 20px;&quot;&gt;$$\boldsymbol{T}^{\mathsf{T}}$$&lt;/font&gt;" style="rounded=0;whiteSpace=wrap;html=1;direction=east;" parent="1" vertex="1">
          <mxGeometry x="880" y="39" width="120" height="481" as="geometry" />
        </mxCell>
        <mxCell id="6vZ_p8r6TQkiwok0AXN3-215" value="&lt;font style=&quot;font-size: 15px;&quot;&gt;$$y_{0}[m]$$&lt;/font&gt;" style="text;html=1;align=center;verticalAlign=middle;whiteSpace=wrap;rounded=0;direction=east;" parent="1" vertex="1">
          <mxGeometry x="760" y="44" width="70" height="30" as="geometry" />
        </mxCell>
        <mxCell id="6vZ_p8r6TQkiwok0AXN3-216" value="&lt;font style=&quot;font-size: 15px;&quot;&gt;$$y_{1}[m]$$&lt;/font&gt;" style="text;html=1;align=center;verticalAlign=middle;whiteSpace=wrap;rounded=0;direction=east;" parent="1" vertex="1">
          <mxGeometry x="760" y="105" width="70" height="30" as="geometry" />
        </mxCell>
        <mxCell id="6vZ_p8r6TQkiwok0AXN3-217" value="&lt;font style=&quot;font-size: 15px;&quot;&gt;$$y_{M-1}[m]$$&lt;/font&gt;" style="text;html=1;align=center;verticalAlign=middle;whiteSpace=wrap;rounded=0;direction=east;" parent="1" vertex="1">
          <mxGeometry x="760" y="185" width="70" height="30" as="geometry" />
        </mxCell>
        <mxCell id="6vZ_p8r6TQkiwok0AXN3-218" value="&lt;font style=&quot;font-size: 20px;&quot;&gt;$$\vdots$$&lt;/font&gt;" style="text;html=1;align=center;verticalAlign=middle;whiteSpace=wrap;rounded=0;direction=north;" parent="1" vertex="1">
          <mxGeometry x="780" y="140" width="30" height="40" as="geometry" />
        </mxCell>
        <mxCell id="6vZ_p8r6TQkiwok0AXN3-228" value="&lt;font style=&quot;font-size: 11px;&quot;&gt;$$0$$&lt;/font&gt;" style="text;html=1;align=center;verticalAlign=middle;whiteSpace=wrap;rounded=0;direction=east;" parent="1" vertex="1">
          <mxGeometry x="879" y="44" width="30" height="30" as="geometry" />
        </mxCell>
        <mxCell id="6vZ_p8r6TQkiwok0AXN3-229" value="&lt;font style=&quot;font-size: 11px;&quot;&gt;$$1$$&lt;/font&gt;" style="text;html=1;align=center;verticalAlign=middle;whiteSpace=wrap;rounded=0;direction=east;" parent="1" vertex="1">
          <mxGeometry x="880" y="105" width="30" height="30" as="geometry" />
        </mxCell>
        <mxCell id="6vZ_p8r6TQkiwok0AXN3-230" value="&lt;font style=&quot;font-size: 11px;&quot;&gt;$$M-1$$&lt;/font&gt;" style="text;html=1;align=center;verticalAlign=middle;whiteSpace=wrap;rounded=0;direction=east;" parent="1" vertex="1">
          <mxGeometry x="880" y="185" width="40" height="30" as="geometry" />
        </mxCell>
        <mxCell id="6vZ_p8r6TQkiwok0AXN3-233" value="&lt;font style=&quot;font-size: 20px;&quot;&gt;$$\vdots$$&lt;/font&gt;" style="text;html=1;align=center;verticalAlign=middle;whiteSpace=wrap;rounded=0;direction=north;" parent="1" vertex="1">
          <mxGeometry x="879" y="140" width="30" height="40" as="geometry" />
        </mxCell>
        <mxCell id="6vZ_p8r6TQkiwok0AXN3-240" value="&lt;font style=&quot;font-size: 11px;&quot;&gt;$$0$$&lt;/font&gt;" style="text;html=1;align=center;verticalAlign=middle;whiteSpace=wrap;rounded=0;direction=east;" parent="1" vertex="1">
          <mxGeometry x="970" y="45" width="30" height="30" as="geometry" />
        </mxCell>
        <mxCell id="6vZ_p8r6TQkiwok0AXN3-241" value="&lt;font style=&quot;font-size: 11px;&quot;&gt;$$1$$&lt;/font&gt;" style="text;html=1;align=center;verticalAlign=middle;whiteSpace=wrap;rounded=0;direction=east;" parent="1" vertex="1">
          <mxGeometry x="970" y="105" width="30" height="30" as="geometry" />
        </mxCell>
        <mxCell id="6vZ_p8r6TQkiwok0AXN3-242" value="&lt;font style=&quot;font-size: 11px;&quot;&gt;$$M-1$$&lt;/font&gt;" style="text;html=1;align=center;verticalAlign=middle;whiteSpace=wrap;rounded=0;direction=east;" parent="1" vertex="1">
          <mxGeometry x="960" y="185" width="40" height="30" as="geometry" />
        </mxCell>
        <mxCell id="6vZ_p8r6TQkiwok0AXN3-243" value="&lt;font style=&quot;font-size: 11px;&quot;&gt;$$M$$&lt;/font&gt;" style="text;html=1;align=center;verticalAlign=middle;whiteSpace=wrap;rounded=0;direction=east;" parent="1" vertex="1">
          <mxGeometry x="970" y="245" width="30" height="30" as="geometry" />
        </mxCell>
        <mxCell id="6vZ_p8r6TQkiwok0AXN3-244" value="&lt;font style=&quot;font-size: 11px;&quot;&gt;$$M+1$$&lt;/font&gt;" style="text;html=1;align=center;verticalAlign=middle;whiteSpace=wrap;rounded=0;direction=east;" parent="1" vertex="1">
          <mxGeometry x="960" y="305" width="40" height="30" as="geometry" />
        </mxCell>
        <mxCell id="6vZ_p8r6TQkiwok0AXN3-245" value="&lt;font style=&quot;font-size: 11px;&quot;&gt;$$2M-1$$&lt;/font&gt;" style="text;html=1;align=center;verticalAlign=middle;whiteSpace=wrap;rounded=0;direction=east;" parent="1" vertex="1">
          <mxGeometry x="950" y="485" width="50" height="30" as="geometry" />
        </mxCell>
        <mxCell id="6vZ_p8r6TQkiwok0AXN3-246" value="&lt;font style=&quot;font-size: 20px;&quot;&gt;$$\vdots$$&lt;/font&gt;" style="text;html=1;align=center;verticalAlign=middle;whiteSpace=wrap;rounded=0;direction=north;" parent="1" vertex="1">
          <mxGeometry x="968" y="140" width="30" height="40" as="geometry" />
        </mxCell>
        <mxCell id="6vZ_p8r6TQkiwok0AXN3-247" value="&lt;font style=&quot;font-size: 20px;&quot;&gt;$$\vdots$$&lt;/font&gt;" style="text;html=1;align=center;verticalAlign=middle;whiteSpace=wrap;rounded=0;direction=north;" parent="1" vertex="1">
          <mxGeometry x="968" y="389" width="30" height="40" as="geometry" />
        </mxCell>
        <mxCell id="6vZ_p8r6TQkiwok0AXN3-249" value="&lt;font style=&quot;font-size: 15px;&quot;&gt;$$z^{-1}$$&lt;/font&gt;" style="rounded=0;whiteSpace=wrap;html=1;" parent="1" vertex="1">
          <mxGeometry x="1060" y="40" width="40" height="40" as="geometry" />
        </mxCell>
        <mxCell id="6vZ_p8r6TQkiwok0AXN3-250" value="$$z^{-2(K-1)}G_{0}(-z^{2})$$" style="rounded=0;whiteSpace=wrap;html=1;" parent="1" vertex="1">
          <mxGeometry x="1140" y="39" width="140" height="40" as="geometry" />
        </mxCell>
        <mxCell id="6vZ_p8r6TQkiwok0AXN3-251" value="$$z^{-2(K-1)}G_{M}(-z^{2})$$" style="rounded=0;whiteSpace=wrap;html=1;" parent="1" vertex="1">
          <mxGeometry x="1140" y="100" width="140" height="40" as="geometry" />
        </mxCell>
        <mxCell id="6vZ_p8r6TQkiwok0AXN3-252" value="$$z^{-2(K-1)}G_{1}(-z^{2})$$" style="rounded=0;whiteSpace=wrap;html=1;" parent="1" vertex="1">
          <mxGeometry x="1140" y="160" width="140" height="40" as="geometry" />
        </mxCell>
        <mxCell id="6vZ_p8r6TQkiwok0AXN3-253" value="$$z^{-2(K-1)}G_{M+1}(-z^{2})$$" style="rounded=0;whiteSpace=wrap;html=1;" parent="1" vertex="1">
          <mxGeometry x="1140" y="220" width="140" height="40" as="geometry" />
        </mxCell>
        <mxCell id="6vZ_p8r6TQkiwok0AXN3-254" value="$$z^{-2(K-1)}G_{2M-1}(-z^{2})$$" style="rounded=0;whiteSpace=wrap;html=1;" parent="1" vertex="1">
          <mxGeometry x="1140" y="480" width="140" height="40" as="geometry" />
        </mxCell>
        <mxCell id="6vZ_p8r6TQkiwok0AXN3-255" value="$$z^{-2(K-1)}G_{M-1}(-z^{2})$$" style="rounded=0;whiteSpace=wrap;html=1;" parent="1" vertex="1">
          <mxGeometry x="1140" y="420" width="140" height="40" as="geometry" />
        </mxCell>
        <mxCell id="6vZ_p8r6TQkiwok0AXN3-256" value="&lt;font style=&quot;font-size: 15px;&quot;&gt;$$z^{-1}$$&lt;/font&gt;" style="rounded=0;whiteSpace=wrap;html=1;" parent="1" vertex="1">
          <mxGeometry x="1060" y="160" width="40" height="40" as="geometry" />
        </mxCell>
        <mxCell id="6vZ_p8r6TQkiwok0AXN3-257" value="&lt;font style=&quot;font-size: 15px;&quot;&gt;$$z^{-1}$$&lt;/font&gt;" style="rounded=0;whiteSpace=wrap;html=1;" parent="1" vertex="1">
          <mxGeometry x="1060" y="420" width="40" height="40" as="geometry" />
        </mxCell>
        <mxCell id="6vZ_p8r6TQkiwok0AXN3-258" value="" style="verticalLabelPosition=bottom;verticalAlign=top;html=1;shape=mxgraph.flowchart.summing_function;" parent="1" vertex="1">
          <mxGeometry x="1309" y="49" width="20" height="20" as="geometry" />
        </mxCell>
        <mxCell id="6vZ_p8r6TQkiwok0AXN3-261" value="&lt;font style=&quot;font-size: 16px;&quot;&gt;$$\uparrow&lt;br&gt;M$$&lt;/font&gt;" style="rounded=0;whiteSpace=wrap;html=1;" parent="1" vertex="1">
          <mxGeometry x="1360" y="39" width="40" height="40" as="geometry" />
        </mxCell>
        <mxCell id="6vZ_p8r6TQkiwok0AXN3-263" value="" style="verticalLabelPosition=bottom;verticalAlign=top;html=1;shape=mxgraph.flowchart.summing_function;" parent="1" vertex="1">
          <mxGeometry x="1310" y="170" width="20" height="20" as="geometry" />
        </mxCell>
        <mxCell id="6vZ_p8r6TQkiwok0AXN3-289" value="" style="edgeStyle=orthogonalEdgeStyle;rounded=0;orthogonalLoop=1;jettySize=auto;html=1;entryX=0;entryY=0.5;entryDx=0;entryDy=0;" parent="1" target="6vZ_p8r6TQkiwok0AXN3-264" edge="1">
          <mxGeometry relative="1" as="geometry">
            <mxPoint x="1330" y="180" as="sourcePoint" />
            <mxPoint x="1350" y="220" as="targetPoint" />
          </mxGeometry>
        </mxCell>
        <mxCell id="6vZ_p8r6TQkiwok0AXN3-264" value="&lt;font style=&quot;font-size: 16px;&quot;&gt;$$\uparrow&lt;br&gt;M$$&lt;/font&gt;" style="rounded=0;whiteSpace=wrap;html=1;" parent="1" vertex="1">
          <mxGeometry x="1360" y="160" width="40" height="40" as="geometry" />
        </mxCell>
        <mxCell id="6vZ_p8r6TQkiwok0AXN3-265" value="" style="verticalLabelPosition=bottom;verticalAlign=top;html=1;shape=mxgraph.flowchart.summing_function;" parent="1" vertex="1">
          <mxGeometry x="1310" y="430" width="20" height="20" as="geometry" />
        </mxCell>
        <mxCell id="6vZ_p8r6TQkiwok0AXN3-266" value="&lt;font style=&quot;font-size: 16px;&quot;&gt;$$\uparrow&lt;br&gt;M$$&lt;/font&gt;" style="rounded=0;whiteSpace=wrap;html=1;" parent="1" vertex="1">
          <mxGeometry x="1360" y="420" width="40" height="40" as="geometry" />
        </mxCell>
        <mxCell id="6vZ_p8r6TQkiwok0AXN3-267" value="&lt;font style=&quot;font-size: 15px;&quot;&gt;$$z^{-1}$$&lt;/font&gt;" style="rounded=0;whiteSpace=wrap;html=1;" parent="1" vertex="1">
          <mxGeometry x="1440" y="100" width="40" height="40" as="geometry" />
        </mxCell>
        <mxCell id="6vZ_p8r6TQkiwok0AXN3-268" value="&lt;font style=&quot;font-size: 15px;&quot;&gt;$$z^{-1}$$&lt;/font&gt;" style="rounded=0;whiteSpace=wrap;html=1;" parent="1" vertex="1">
          <mxGeometry x="1440" y="220" width="40" height="40" as="geometry" />
        </mxCell>
        <mxCell id="6vZ_p8r6TQkiwok0AXN3-269" value="&lt;font style=&quot;font-size: 15px;&quot;&gt;$$z^{-1}$$&lt;/font&gt;" style="rounded=0;whiteSpace=wrap;html=1;" parent="1" vertex="1">
          <mxGeometry x="1440" y="360" width="40" height="40" as="geometry" />
        </mxCell>
        <mxCell id="6vZ_p8r6TQkiwok0AXN3-270" value="" style="verticalLabelPosition=bottom;verticalAlign=top;html=1;shape=mxgraph.flowchart.summing_function;" parent="1" vertex="1">
          <mxGeometry x="1450" y="430" width="20" height="20" as="geometry" />
        </mxCell>
        <mxCell id="6vZ_p8r6TQkiwok0AXN3-271" value="" style="verticalLabelPosition=bottom;verticalAlign=top;html=1;shape=mxgraph.flowchart.summing_function;" parent="1" vertex="1">
          <mxGeometry x="1450" y="170" width="20" height="20" as="geometry" />
        </mxCell>
        <mxCell id="6vZ_p8r6TQkiwok0AXN3-272" value="" style="edgeStyle=segmentEdgeStyle;endArrow=classic;html=1;curved=0;rounded=0;endSize=8;startSize=8;exitX=1;exitY=0.5;exitDx=0;exitDy=0;" parent="1" source="6vZ_p8r6TQkiwok0AXN3-249" target="6vZ_p8r6TQkiwok0AXN3-250" edge="1">
          <mxGeometry width="50" height="50" relative="1" as="geometry">
            <mxPoint x="1040" y="400" as="sourcePoint" />
            <mxPoint x="1090" y="350" as="targetPoint" />
          </mxGeometry>
        </mxCell>
        <mxCell id="6vZ_p8r6TQkiwok0AXN3-273" value="" style="edgeStyle=segmentEdgeStyle;endArrow=classic;html=1;curved=0;rounded=0;endSize=8;startSize=8;exitX=1;exitY=0.5;exitDx=0;exitDy=0;entryX=0;entryY=0.5;entryDx=0;entryDy=0;" parent="1" source="6vZ_p8r6TQkiwok0AXN3-243" target="6vZ_p8r6TQkiwok0AXN3-251" edge="1">
          <mxGeometry width="50" height="50" relative="1" as="geometry">
            <mxPoint x="1040" y="400" as="sourcePoint" />
            <mxPoint x="1090" y="350" as="targetPoint" />
            <Array as="points">
              <mxPoint x="1040" y="260" />
              <mxPoint x="1040" y="120" />
            </Array>
          </mxGeometry>
        </mxCell>
        <mxCell id="6vZ_p8r6TQkiwok0AXN3-274" value="" style="edgeStyle=segmentEdgeStyle;endArrow=classic;html=1;curved=0;rounded=0;endSize=8;startSize=8;exitX=1;exitY=0.5;exitDx=0;exitDy=0;entryX=0;entryY=0.5;entryDx=0;entryDy=0;" parent="1" source="6vZ_p8r6TQkiwok0AXN3-241" target="6vZ_p8r6TQkiwok0AXN3-256" edge="1">
          <mxGeometry width="50" height="50" relative="1" as="geometry">
            <mxPoint x="1010" y="270" as="sourcePoint" />
            <mxPoint x="1150" y="130" as="targetPoint" />
            <Array as="points">
              <mxPoint x="1020" y="120" />
              <mxPoint x="1020" y="180" />
            </Array>
          </mxGeometry>
        </mxCell>
        <mxCell id="6vZ_p8r6TQkiwok0AXN3-275" value="" style="edgeStyle=segmentEdgeStyle;endArrow=classic;html=1;curved=0;rounded=0;endSize=8;startSize=8;exitX=1;exitY=0.5;exitDx=0;exitDy=0;entryX=0;entryY=0.5;entryDx=0;entryDy=0;" parent="1" source="6vZ_p8r6TQkiwok0AXN3-240" target="6vZ_p8r6TQkiwok0AXN3-249" edge="1">
          <mxGeometry width="50" height="50" relative="1" as="geometry">
            <mxPoint x="1010" y="270" as="sourcePoint" />
            <mxPoint x="1150" y="130" as="targetPoint" />
            <Array as="points">
              <mxPoint x="1060" y="60" />
              <mxPoint x="1060" y="60" />
            </Array>
          </mxGeometry>
        </mxCell>
        <mxCell id="6vZ_p8r6TQkiwok0AXN3-276" value="" style="edgeStyle=segmentEdgeStyle;endArrow=classic;html=1;curved=0;rounded=0;endSize=8;startSize=8;exitX=1;exitY=0.5;exitDx=0;exitDy=0;entryX=0;entryY=0.5;entryDx=0;entryDy=0;" parent="1" source="6vZ_p8r6TQkiwok0AXN3-242" target="6vZ_p8r6TQkiwok0AXN3-257" edge="1">
          <mxGeometry width="50" height="50" relative="1" as="geometry">
            <mxPoint x="1008" y="130" as="sourcePoint" />
            <mxPoint x="1070" y="190" as="targetPoint" />
            <Array as="points">
              <mxPoint x="1020" y="200" />
              <mxPoint x="1020" y="440" />
            </Array>
          </mxGeometry>
        </mxCell>
        <mxCell id="6vZ_p8r6TQkiwok0AXN3-277" value="" style="edgeStyle=segmentEdgeStyle;endArrow=classic;html=1;curved=0;rounded=0;endSize=8;startSize=8;exitX=1;exitY=0.5;exitDx=0;exitDy=0;" parent="1" source="6vZ_p8r6TQkiwok0AXN3-244" edge="1">
          <mxGeometry width="50" height="50" relative="1" as="geometry">
            <mxPoint x="1028" y="360" as="sourcePoint" />
            <mxPoint x="1140" y="240" as="targetPoint" />
            <Array as="points">
              <mxPoint x="1030" y="320" />
              <mxPoint x="1030" y="240" />
              <mxPoint x="1140" y="240" />
            </Array>
          </mxGeometry>
        </mxCell>
        <mxCell id="6vZ_p8r6TQkiwok0AXN3-278" value="" style="edgeStyle=segmentEdgeStyle;endArrow=classic;html=1;curved=0;rounded=0;endSize=8;startSize=8;exitX=1;exitY=0.5;exitDx=0;exitDy=0;entryX=0;entryY=0.5;entryDx=0;entryDy=0;" parent="1" source="6vZ_p8r6TQkiwok0AXN3-245" target="6vZ_p8r6TQkiwok0AXN3-254" edge="1">
          <mxGeometry width="50" height="50" relative="1" as="geometry">
            <mxPoint x="1008" y="330" as="sourcePoint" />
            <mxPoint x="1150" y="250" as="targetPoint" />
            <Array as="points">
              <mxPoint x="1020" y="500" />
              <mxPoint x="1020" y="500" />
            </Array>
          </mxGeometry>
        </mxCell>
        <mxCell id="6vZ_p8r6TQkiwok0AXN3-279" value="" style="edgeStyle=segmentEdgeStyle;endArrow=classic;html=1;curved=0;rounded=0;endSize=8;startSize=8;exitX=1;exitY=0.5;exitDx=0;exitDy=0;entryX=0;entryY=0.5;entryDx=0;entryDy=0;" parent="1" source="6vZ_p8r6TQkiwok0AXN3-256" target="6vZ_p8r6TQkiwok0AXN3-252" edge="1">
          <mxGeometry width="50" height="50" relative="1" as="geometry">
            <mxPoint x="1008" y="130" as="sourcePoint" />
            <mxPoint x="1070" y="190" as="targetPoint" />
            <Array as="points">
              <mxPoint x="1140" y="180" />
            </Array>
          </mxGeometry>
        </mxCell>
        <mxCell id="6vZ_p8r6TQkiwok0AXN3-280" value="" style="edgeStyle=segmentEdgeStyle;endArrow=classic;html=1;curved=0;rounded=0;endSize=8;startSize=8;exitX=1;exitY=0.5;exitDx=0;exitDy=0;entryX=0;entryY=0.5;entryDx=0;entryDy=0;" parent="1" source="6vZ_p8r6TQkiwok0AXN3-257" target="6vZ_p8r6TQkiwok0AXN3-255" edge="1">
          <mxGeometry width="50" height="50" relative="1" as="geometry">
            <mxPoint x="1110" y="190" as="sourcePoint" />
            <mxPoint x="1150" y="189" as="targetPoint" />
            <Array as="points">
              <mxPoint x="1120" y="440" />
              <mxPoint x="1120" y="440" />
            </Array>
          </mxGeometry>
        </mxCell>
        <mxCell id="6vZ_p8r6TQkiwok0AXN3-281" value="" style="edgeStyle=segmentEdgeStyle;endArrow=classic;html=1;curved=0;rounded=0;endSize=8;startSize=8;exitX=1;exitY=0.5;exitDx=0;exitDy=0;entryX=0;entryY=0.5;entryDx=0;entryDy=0;entryPerimeter=0;" parent="1" source="6vZ_p8r6TQkiwok0AXN3-250" target="6vZ_p8r6TQkiwok0AXN3-258" edge="1">
          <mxGeometry width="50" height="50" relative="1" as="geometry">
            <mxPoint x="1110" y="70" as="sourcePoint" />
            <mxPoint x="1150" y="70" as="targetPoint" />
          </mxGeometry>
        </mxCell>
        <mxCell id="6vZ_p8r6TQkiwok0AXN3-282" value="" style="edgeStyle=segmentEdgeStyle;endArrow=classic;html=1;curved=0;rounded=0;endSize=8;startSize=8;exitX=1;exitY=0.5;exitDx=0;exitDy=0;entryX=0.5;entryY=1;entryDx=0;entryDy=0;entryPerimeter=0;" parent="1" source="6vZ_p8r6TQkiwok0AXN3-251" target="6vZ_p8r6TQkiwok0AXN3-258" edge="1">
          <mxGeometry width="50" height="50" relative="1" as="geometry">
            <mxPoint x="1290" y="69" as="sourcePoint" />
            <mxPoint x="1319" y="69" as="targetPoint" />
          </mxGeometry>
        </mxCell>
        <mxCell id="6vZ_p8r6TQkiwok0AXN3-283" value="" style="edgeStyle=segmentEdgeStyle;endArrow=classic;html=1;curved=0;rounded=0;endSize=8;startSize=8;exitX=1;exitY=0.5;exitDx=0;exitDy=0;entryX=0.5;entryY=1;entryDx=0;entryDy=0;entryPerimeter=0;" parent="1" source="6vZ_p8r6TQkiwok0AXN3-253" target="6vZ_p8r6TQkiwok0AXN3-263" edge="1">
          <mxGeometry width="50" height="50" relative="1" as="geometry">
            <mxPoint x="1280" y="245" as="sourcePoint" />
            <mxPoint x="1319" y="194" as="targetPoint" />
          </mxGeometry>
        </mxCell>
        <mxCell id="6vZ_p8r6TQkiwok0AXN3-284" value="" style="edgeStyle=segmentEdgeStyle;endArrow=classic;html=1;curved=0;rounded=0;endSize=8;startSize=8;exitX=1;exitY=0.5;exitDx=0;exitDy=0;entryX=0.5;entryY=1;entryDx=0;entryDy=0;entryPerimeter=0;" parent="1" source="6vZ_p8r6TQkiwok0AXN3-254" target="6vZ_p8r6TQkiwok0AXN3-265" edge="1">
          <mxGeometry width="50" height="50" relative="1" as="geometry">
            <mxPoint x="1280" y="500" as="sourcePoint" />
            <mxPoint x="1319" y="450" as="targetPoint" />
          </mxGeometry>
        </mxCell>
        <mxCell id="6vZ_p8r6TQkiwok0AXN3-286" value="" style="edgeStyle=segmentEdgeStyle;endArrow=classic;html=1;curved=0;rounded=0;endSize=8;startSize=8;exitX=1;exitY=0.5;exitDx=0;exitDy=0;entryX=0;entryY=0.5;entryDx=0;entryDy=0;entryPerimeter=0;" parent="1" source="6vZ_p8r6TQkiwok0AXN3-255" target="6vZ_p8r6TQkiwok0AXN3-265" edge="1">
          <mxGeometry width="50" height="50" relative="1" as="geometry">
            <mxPoint x="1290" y="189" as="sourcePoint" />
            <mxPoint x="1319" y="190" as="targetPoint" />
          </mxGeometry>
        </mxCell>
        <mxCell id="6vZ_p8r6TQkiwok0AXN3-287" value="" style="edgeStyle=segmentEdgeStyle;endArrow=classic;html=1;curved=0;rounded=0;endSize=8;startSize=8;exitX=1;exitY=0.5;exitDx=0;exitDy=0;entryX=0;entryY=0.5;entryDx=0;entryDy=0;exitPerimeter=0;" parent="1" source="6vZ_p8r6TQkiwok0AXN3-258" target="6vZ_p8r6TQkiwok0AXN3-261" edge="1">
          <mxGeometry width="50" height="50" relative="1" as="geometry">
            <mxPoint x="1290" y="450" as="sourcePoint" />
            <mxPoint x="1320" y="450" as="targetPoint" />
          </mxGeometry>
        </mxCell>
        <mxCell id="6vZ_p8r6TQkiwok0AXN3-291" value="" style="edgeStyle=segmentEdgeStyle;endArrow=classic;html=1;curved=0;rounded=0;endSize=8;startSize=8;exitX=1;exitY=0.5;exitDx=0;exitDy=0;exitPerimeter=0;entryX=0;entryY=0.5;entryDx=0;entryDy=0;" parent="1" source="6vZ_p8r6TQkiwok0AXN3-265" target="6vZ_p8r6TQkiwok0AXN3-266" edge="1">
          <mxGeometry width="50" height="50" relative="1" as="geometry">
            <mxPoint x="1339" y="190" as="sourcePoint" />
            <mxPoint x="1370" y="190" as="targetPoint" />
          </mxGeometry>
        </mxCell>
        <mxCell id="6vZ_p8r6TQkiwok0AXN3-292" value="" style="edgeStyle=segmentEdgeStyle;endArrow=classic;html=1;curved=0;rounded=0;endSize=8;startSize=8;exitX=1;exitY=0.5;exitDx=0;exitDy=0;entryX=0.5;entryY=0;entryDx=0;entryDy=0;" parent="1" source="6vZ_p8r6TQkiwok0AXN3-261" target="6vZ_p8r6TQkiwok0AXN3-267" edge="1">
          <mxGeometry width="50" height="50" relative="1" as="geometry">
            <mxPoint x="1339" y="69" as="sourcePoint" />
            <mxPoint x="1370" y="69" as="targetPoint" />
          </mxGeometry>
        </mxCell>
        <mxCell id="6vZ_p8r6TQkiwok0AXN3-293" value="" style="edgeStyle=segmentEdgeStyle;endArrow=classic;html=1;curved=0;rounded=0;endSize=8;startSize=8;exitX=1;exitY=0.5;exitDx=0;exitDy=0;entryX=0;entryY=0.5;entryDx=0;entryDy=0;entryPerimeter=0;" parent="1" source="6vZ_p8r6TQkiwok0AXN3-264" target="6vZ_p8r6TQkiwok0AXN3-271" edge="1">
          <mxGeometry width="50" height="50" relative="1" as="geometry">
            <mxPoint x="1410" y="69" as="sourcePoint" />
            <mxPoint x="1470" y="110" as="targetPoint" />
          </mxGeometry>
        </mxCell>
        <mxCell id="6vZ_p8r6TQkiwok0AXN3-294" value="" style="edgeStyle=segmentEdgeStyle;endArrow=classic;html=1;curved=0;rounded=0;endSize=8;startSize=8;exitX=1;exitY=0.5;exitDx=0;exitDy=0;entryX=0;entryY=0.5;entryDx=0;entryDy=0;entryPerimeter=0;" parent="1" source="6vZ_p8r6TQkiwok0AXN3-266" target="6vZ_p8r6TQkiwok0AXN3-270" edge="1">
          <mxGeometry width="50" height="50" relative="1" as="geometry">
            <mxPoint x="1410" y="190" as="sourcePoint" />
            <mxPoint x="1460" y="440" as="targetPoint" />
          </mxGeometry>
        </mxCell>
        <mxCell id="6vZ_p8r6TQkiwok0AXN3-295" value="&lt;font style=&quot;font-size: 20px;&quot;&gt;$$\vdots$$&lt;/font&gt;" style="text;html=1;align=center;verticalAlign=middle;whiteSpace=wrap;rounded=0;direction=north;" parent="1" vertex="1">
          <mxGeometry x="1445" y="290" width="30" height="40" as="geometry" />
        </mxCell>
        <mxCell id="6vZ_p8r6TQkiwok0AXN3-296" value="" style="edgeStyle=segmentEdgeStyle;endArrow=classic;html=1;curved=0;rounded=0;endSize=8;startSize=8;exitX=0.5;exitY=1;exitDx=0;exitDy=0;entryX=0.5;entryY=0;entryDx=0;entryDy=0;entryPerimeter=0;" parent="1" source="6vZ_p8r6TQkiwok0AXN3-267" target="6vZ_p8r6TQkiwok0AXN3-271" edge="1">
          <mxGeometry width="50" height="50" relative="1" as="geometry">
            <mxPoint x="1410" y="190" as="sourcePoint" />
            <mxPoint x="1460" y="190" as="targetPoint" />
          </mxGeometry>
        </mxCell>
        <mxCell id="6vZ_p8r6TQkiwok0AXN3-298" value="" style="edgeStyle=segmentEdgeStyle;endArrow=classic;html=1;curved=0;rounded=0;endSize=8;startSize=8;entryX=0.5;entryY=0;entryDx=0;entryDy=0;" parent="1" target="6vZ_p8r6TQkiwok0AXN3-268" edge="1">
          <mxGeometry width="50" height="50" relative="1" as="geometry">
            <mxPoint x="1460" y="190" as="sourcePoint" />
            <mxPoint x="1460" y="190" as="targetPoint" />
          </mxGeometry>
        </mxCell>
        <mxCell id="6vZ_p8r6TQkiwok0AXN3-299" value="" style="edgeStyle=segmentEdgeStyle;endArrow=classic;html=1;curved=0;rounded=0;endSize=8;startSize=8;entryX=1;entryY=0.5;entryDx=0;entryDy=0;exitX=0.5;exitY=1;exitDx=0;exitDy=0;" parent="1" source="6vZ_p8r6TQkiwok0AXN3-268" target="6vZ_p8r6TQkiwok0AXN3-295" edge="1">
          <mxGeometry width="50" height="50" relative="1" as="geometry">
            <mxPoint x="1470" y="200" as="sourcePoint" />
            <mxPoint x="1470" y="230" as="targetPoint" />
          </mxGeometry>
        </mxCell>
        <mxCell id="6vZ_p8r6TQkiwok0AXN3-300" value="" style="edgeStyle=segmentEdgeStyle;endArrow=classic;html=1;curved=0;rounded=0;endSize=8;startSize=8;entryX=0.5;entryY=0;entryDx=0;entryDy=0;exitX=0;exitY=0.5;exitDx=0;exitDy=0;" parent="1" source="6vZ_p8r6TQkiwok0AXN3-295" target="6vZ_p8r6TQkiwok0AXN3-269" edge="1">
          <mxGeometry width="50" height="50" relative="1" as="geometry">
            <mxPoint x="1470" y="270" as="sourcePoint" />
            <mxPoint x="1470" y="300" as="targetPoint" />
          </mxGeometry>
        </mxCell>
        <mxCell id="6vZ_p8r6TQkiwok0AXN3-301" value="" style="edgeStyle=segmentEdgeStyle;endArrow=classic;html=1;curved=0;rounded=0;endSize=8;startSize=8;entryX=0.5;entryY=0;entryDx=0;entryDy=0;exitX=0.5;exitY=1;exitDx=0;exitDy=0;entryPerimeter=0;" parent="1" source="6vZ_p8r6TQkiwok0AXN3-269" target="6vZ_p8r6TQkiwok0AXN3-270" edge="1">
          <mxGeometry width="50" height="50" relative="1" as="geometry">
            <mxPoint x="1470" y="340" as="sourcePoint" />
            <mxPoint x="1470" y="370" as="targetPoint" />
          </mxGeometry>
        </mxCell>
        <mxCell id="6vZ_p8r6TQkiwok0AXN3-302" value="&lt;font style=&quot;font-size: 20px;&quot;&gt;$$\vdots$$&lt;/font&gt;" style="text;html=1;align=center;verticalAlign=middle;whiteSpace=wrap;rounded=0;direction=north;" parent="1" vertex="1">
          <mxGeometry x="1195" y="320" width="30" height="40" as="geometry" />
        </mxCell>
        <mxCell id="6vZ_p8r6TQkiwok0AXN3-303" value="&lt;font style=&quot;font-size: 15px;&quot;&gt;$$\hat{x}[n]$$&lt;/font&gt;" style="text;html=1;align=center;verticalAlign=middle;whiteSpace=wrap;rounded=0;" parent="1" vertex="1">
          <mxGeometry x="1510" y="425" width="40" height="30" as="geometry" />
        </mxCell>
        <mxCell id="6vZ_p8r6TQkiwok0AXN3-304" value="" style="edgeStyle=segmentEdgeStyle;endArrow=classic;html=1;curved=0;rounded=0;endSize=8;startSize=8;exitX=1;exitY=0.5;exitDx=0;exitDy=0;entryX=0;entryY=0.5;entryDx=0;entryDy=0;exitPerimeter=0;" parent="1" source="6vZ_p8r6TQkiwok0AXN3-270" target="6vZ_p8r6TQkiwok0AXN3-303" edge="1">
          <mxGeometry width="50" height="50" relative="1" as="geometry">
            <mxPoint x="1410" y="450" as="sourcePoint" />
            <mxPoint x="1460" y="450" as="targetPoint" />
          </mxGeometry>
        </mxCell>
        <mxCell id="6vZ_p8r6TQkiwok0AXN3-305" value="" style="edgeStyle=segmentEdgeStyle;endArrow=classic;html=1;curved=0;rounded=0;endSize=8;startSize=8;exitX=1;exitY=0.5;exitDx=0;exitDy=0;entryX=0;entryY=0.5;entryDx=0;entryDy=0;" parent="1" source="6vZ_p8r6TQkiwok0AXN3-215" target="6vZ_p8r6TQkiwok0AXN3-228" edge="1">
          <mxGeometry width="50" height="50" relative="1" as="geometry">
            <mxPoint x="1008" y="70" as="sourcePoint" />
            <mxPoint x="1070" y="70" as="targetPoint" />
            <Array as="points">
              <mxPoint x="860" y="59" />
              <mxPoint x="860" y="59" />
            </Array>
          </mxGeometry>
        </mxCell>
        <mxCell id="6vZ_p8r6TQkiwok0AXN3-306" value="" style="edgeStyle=segmentEdgeStyle;endArrow=classic;html=1;curved=0;rounded=0;endSize=8;startSize=8;exitX=1;exitY=0.5;exitDx=0;exitDy=0;entryX=0;entryY=0.5;entryDx=0;entryDy=0;" parent="1" source="6vZ_p8r6TQkiwok0AXN3-216" target="6vZ_p8r6TQkiwok0AXN3-229" edge="1">
          <mxGeometry width="50" height="50" relative="1" as="geometry">
            <mxPoint x="840" y="69" as="sourcePoint" />
            <mxPoint x="889" y="69" as="targetPoint" />
            <Array as="points">
              <mxPoint x="850" y="120" />
              <mxPoint x="850" y="120" />
            </Array>
          </mxGeometry>
        </mxCell>
        <mxCell id="6vZ_p8r6TQkiwok0AXN3-307" value="" style="edgeStyle=segmentEdgeStyle;endArrow=classic;html=1;curved=0;rounded=0;endSize=8;startSize=8;exitX=1;exitY=0.5;exitDx=0;exitDy=0;entryX=0;entryY=0.5;entryDx=0;entryDy=0;" parent="1" source="6vZ_p8r6TQkiwok0AXN3-217" target="6vZ_p8r6TQkiwok0AXN3-230" edge="1">
          <mxGeometry width="50" height="50" relative="1" as="geometry">
            <mxPoint x="840" y="130" as="sourcePoint" />
            <mxPoint x="890" y="130" as="targetPoint" />
            <Array as="points">
              <mxPoint x="850" y="200" />
              <mxPoint x="850" y="200" />
            </Array>
          </mxGeometry>
        </mxCell>
        <mxCell id="O3RgzTNRqn7HrwCZ4FSv-3" value="" style="edgeStyle=segmentEdgeStyle;endArrow=classic;html=1;curved=0;rounded=0;endSize=8;startSize=8;entryX=0;entryY=0.5;entryDx=0;entryDy=0;entryPerimeter=0;" edge="1" parent="1" target="6vZ_p8r6TQkiwok0AXN3-263">
          <mxGeometry width="50" height="50" relative="1" as="geometry">
            <mxPoint x="1280" y="180" as="sourcePoint" />
            <mxPoint x="1300" y="180" as="targetPoint" />
            <Array as="points" />
          </mxGeometry>
        </mxCell>
      </root>
    </mxGraphModel>
  </diagram>
</mxfile>
